<svg xmlns="http://www.w3.org/2000/svg" width="384.717" height="182.777"><path d="M155.314 72.776c2.622 0 4.89.734 6.804 2.203l-1.73 2.084c-1.547-1.128-3.251-1.69-5.113-1.69-3.094 0-5.31 1.546-6.648 4.64-.76 1.757-1.14 4.143-1.14 7.158 0 2.386.289 4.287.865 5.704 1.338 3.304 3.75 4.956 7.238 4.956 1.888 0 3.645-.578 5.27-1.731l1.73 2.242c-2.255 1.469-4.759 2.202-7.511 2.202-3.278 0-5.947-1.285-8.005-3.854-2.059-2.57-3.087-5.9-3.087-9.99 0-4.012 1.074-7.336 3.225-9.971 2.15-2.636 4.851-3.953 8.102-3.953zm10.148 17.582c0-3.174.747-5.677 2.242-7.513 1.494-1.836 3.526-2.754 6.096-2.754 2.91 0 5.153 1.141 6.726 3.422 1.206 1.757 1.81 4.183 1.81 7.277 0 3.619-1.024 6.32-3.069 8.102-1.442 1.259-3.225 1.888-5.349 1.888-2.622 0-4.687-.93-6.195-2.792-1.508-1.862-2.261-4.406-2.261-7.63zm12.468-5.232c-.813-1.678-2.203-2.517-4.169-2.517-1.915 0-3.251.708-4.012 2.124-.63 1.153-.944 2.858-.944 5.113 0 2.937.4 5.067 1.2 6.392.8 1.323 2.13 1.986 3.991 1.986 2.124 0 3.541-.984 4.249-2.95.393-1.101.59-2.517.59-4.248 0-2.674-.302-4.641-.905-5.9zm10.109-7.552c0-2.543-.185-4.352-.552-5.428l3.186-.629c.315.917.472 2.93.472 6.038v18.552c0 .655.04 1.094.118 1.33.157.42.485.63.984.63h.393l.63 2.006a4.672 4.672 0 0 1-1.968.432c-.943 0-1.724-.282-2.34-.846-.616-.564-.924-1.487-.924-2.773V77.574zm17.706 20.414c1.862 0 3.46-.617 4.798-1.85l1.18 1.968c-1.783 1.625-3.985 2.438-6.608 2.438-2.701 0-4.824-.924-6.372-2.773-1.547-1.848-2.32-4.398-2.32-7.65 0-3.12.793-5.591 2.379-7.414 1.587-1.822 3.534-2.734 5.841-2.734 2.176 0 3.946.722 5.31 2.163a7.357 7.357 0 0 1 1.75 3.07c.328 1.153.492 2.884.492 5.19v.433h-12.232v.472c0 1.941.3 3.37.904 4.287 1.049 1.6 2.674 2.4 4.878 2.4zm-1.26-15.575c-2.858 0-4.365 2.032-4.522 6.096h8.967c-.026-2.02-.328-3.475-.904-4.367-.735-1.153-1.914-1.73-3.54-1.73zm25.363-1.18c.944 0 1.849-.29 2.714-.866l1.888 1.888c-1.101.787-2.202 1.18-3.303 1.18-.473 0-.918-.079-1.338-.236a5.16 5.16 0 0 1 1.18 3.343c0 2.019-.708 3.632-2.124 4.838-1.101.944-2.439 1.416-4.012 1.416h-.433l-.432.157c-2.071.76-3.108 1.469-3.108 2.124 0 .63.526.945 1.574.945h3.147c2.097 0 3.67.366 4.72 1.1 1.442.997 2.162 2.373 2.162 4.13 0 2.518-.996 4.262-2.988 5.232-1.312.63-2.91.944-4.799.944-3.408 0-5.795-.643-7.158-1.927-.892-.84-1.338-1.863-1.338-3.07 0-.628.131-1.323.393-2.083l3.226-.275-.157.314c-.262.524-.393 1.01-.393 1.456 0 2.124 1.703 3.185 5.112 3.185 2.098 0 3.5-.498 4.21-1.495.365-.498.55-1.14.55-1.927 0-1.101-.36-1.895-1.082-2.38-.721-.484-2-.727-3.835-.727-.262 0-.78.013-1.554.04-.773.026-1.264.039-1.475.039-2.465 0-3.696-.945-3.696-2.833 0-1.441 1.1-2.53 3.303-3.264l.236-.078c-1.311-.42-2.373-1.148-3.186-2.183-.813-1.036-1.219-2.197-1.219-3.481 0-1.967.669-3.56 2.006-4.779 1.337-1.22 3.08-1.829 5.23-1.829.997 0 1.94.145 2.833.433l1.337.432c.498.158 1.102.236 1.809.236zm-2.438 5.349c0-2.57-1.206-3.855-3.62-3.855-2.463 0-3.696 1.324-3.696 3.973 0 2.543 1.259 3.815 3.776 3.815 2.36 0 3.54-1.312 3.54-3.933zm10.35 13.53v-19.51l3.266-.51v20.02h-3.265zm-.746-25.605c0-.683.236-1.259.708-1.731a2.307 2.307 0 0 1 1.69-.708c.683 0 1.253.23 1.712.689.459.458.688 1.028.688 1.71a2.34 2.34 0 0 1-.688 1.691c-.459.473-1.029.709-1.711.709-.656 0-1.219-.23-1.691-.689a2.246 2.246 0 0 1-.708-1.671zm9.67 15.85c0-3.173.747-5.676 2.242-7.512 1.493-1.836 3.526-2.754 6.096-2.754 2.91 0 5.152 1.141 6.725 3.422 1.207 1.757 1.81 4.183 1.81 7.277 0 3.619-1.023 6.32-3.068 8.102-1.442 1.259-3.225 1.888-5.35 1.888-2.621 0-4.687-.93-6.194-2.792-1.508-1.862-2.261-4.406-2.261-7.63zm12.468-5.231c-.813-1.678-2.203-2.517-4.17-2.517-1.914 0-3.25.708-4.011 2.124-.63 1.153-.945 2.858-.945 5.113 0 2.937.4 5.067 1.2 6.392.8 1.323 2.13 1.986 3.992 1.986 2.124 0 3.54-.984 4.248-2.95.393-1.101.59-2.517.59-4.248 0-2.674-.302-4.641-.904-5.9z" fill="#e30016" fill-rule="evenodd"/><path d="M169.48 108.138l-3.492 5.29c-3.102-1.87-5.959-2.804-8.57-2.804-1.516 0-2.75.396-3.702 1.19-.953.793-1.428 1.808-1.428 3.041 0 .953.3 1.702.899 2.248.6.548 1.657 1.032 3.174 1.455l4.444 1.218c6.207 1.692 9.31 5.343 9.31 10.95 0 3.737-1.384 6.735-4.153 8.992-2.768 2.257-6.445 3.386-11.03 3.386-4.478 0-8.657-1.11-12.536-3.333l2.75-5.766c3.774 1.975 7.142 2.963 10.104 2.963 4.303 0 6.454-1.675 6.454-5.026 0-2.292-1.605-3.879-4.814-4.76l-4.073-1.112c-3.527-.951-5.943-2.503-7.247-4.654-1.023-1.693-1.534-3.562-1.534-5.608 0-3.35 1.225-6.083 3.676-8.2 2.451-2.115 5.616-3.173 9.496-3.173 4.76 0 8.851 1.234 12.272 3.703zm5.387 10.315c1.198-.776 2.662-1.517 4.39-2.222 2.54-1.058 5.008-1.587 7.406-1.587 4.726 0 7.636 1.569 8.728 4.709.353 1.022.511 2.644.476 4.866l-.159 9.099v.476c0 1.41.141 2.468.424 3.174.353.811 1.058 1.604 2.116 2.38l-3.756 4.338c-1.834-.776-3.103-1.869-3.808-3.28-1.94 1.94-4.303 2.91-7.089 2.91-2.997 0-5.298-.732-6.903-2.196-1.605-1.463-2.407-3.553-2.407-6.268 0-6.208 4.338-9.31 13.013-9.31.67 0 1.199.017 1.587.052v-1.11c0-1.553-.212-2.61-.635-3.174-.424-.565-1.269-.847-2.539-.847-2.187 0-4.796 1.023-7.829 3.068l-3.015-5.078zm13.912 12.008h-.317c-2.505 0-4.232.29-5.184.873-.952.582-1.429 1.667-1.429 3.253 0 1.058.291 1.913.873 2.566.582.652 1.331.978 2.248.978 1.34 0 2.575-.617 3.703-1.85l.106-5.82zm13.604-14.124l6.295-1.799c.67 1.164 1.005 2.292 1.005 3.386.635-.458 1.676-1.129 3.121-2.01 1.446-.777 3.069-1.164 4.867-1.164 1.517 0 2.874.361 4.073 1.085 1.2.722 2.01 1.666 2.433 2.83.353.952.53 2.238.53 3.861v19.784h-6.983v-17.615c0-1.34-.106-2.257-.317-2.751-.318-.81-1.006-1.217-2.063-1.217-1.482 0-3.122.812-4.92 2.433v19.15h-7.089v-19.626c0-2.433-.317-4.55-.952-6.347zm42.257-10.792h13.702c3.244 0 5.854.988 7.829 2.963 1.975 1.975 2.962 4.584 2.962 7.829 0 2.75-.802 5.123-2.407 7.115-1.604 1.993-3.535 3.006-5.792 3.041.564.458 1.075.97 1.534 1.535 1.304 1.657 4.249 6.418 8.834 14.282h-8.728a335.031 335.031 0 0 1-3.44-6.03c-1.903-3.42-3.208-5.678-3.913-6.771-.812-1.199-1.535-1.94-2.17-2.222a3.592 3.592 0 0 0-1.163-.318v15.341h-7.248v-36.765zm7.248 5.925v9.946h2.487c2.82 0 4.69-.424 5.606-1.27.918-.847 1.376-2.063 1.376-3.65 0-2.046-.688-3.439-2.063-4.179-.988-.564-2.574-.847-4.761-.847h-2.645zm22.958 6.983c1.199-.776 2.662-1.517 4.39-2.222 2.54-1.058 5.008-1.587 7.406-1.587 4.726 0 7.636 1.569 8.729 4.709.353 1.022.51 2.644.476 4.866l-.16 9.099v.476c0 1.41.142 2.468.424 3.174.353.811 1.058 1.604 2.116 2.38l-3.756 4.338c-1.834-.776-3.103-1.869-3.808-3.28-1.94 1.94-4.303 2.91-7.089 2.91-2.997 0-5.298-.732-6.903-2.196-1.605-1.463-2.407-3.553-2.407-6.268 0-6.208 4.338-9.31 13.013-9.31.67 0 1.199.017 1.587.052v-1.11c0-1.553-.212-2.61-.635-3.174-.423-.565-1.269-.847-2.539-.847-2.187 0-4.796 1.023-7.829 3.068l-3.015-5.078zm13.912 12.008h-.317c-2.504 0-4.232.29-5.184.873-.952.582-1.429 1.667-1.429 3.253 0 1.058.292 1.913.873 2.566.582.652 1.332.978 2.248.978 1.34 0 2.575-.617 3.703-1.85l.106-5.82zm27.666-21.266c-1.233-.599-2.204-.9-2.91-.9-1.974 0-2.96 1.023-2.96 3.07v3.861h6.876l-1.816 4.867h-5.06v22.217h-6.984v-22.217h-2.327v-4.867h2.592a26.202 26.202 0 0 1-.265-3.703c0-2.68.758-4.752 2.275-6.216 1.517-1.463 3.668-2.195 6.453-2.195 2.257 0 4.391.564 6.401 1.693l-2.275 4.39zm2.116 9.258c1.199-.776 2.663-1.517 4.39-2.222 2.54-1.058 5.008-1.587 7.406-1.587 4.727 0 7.636 1.569 8.729 4.709.353 1.022.511 2.644.476 4.866l-.159 9.099v.476c0 1.41.141 2.468.423 3.174.353.811 1.059 1.604 2.116 2.38l-3.756 4.338c-1.834-.776-3.102-1.869-3.808-3.28-1.94 1.94-4.303 2.91-7.088 2.91-2.998 0-5.299-.732-6.904-2.196-1.605-1.463-2.407-3.553-2.407-6.268 0-6.208 4.338-9.31 13.014-9.31.669 0 1.198.017 1.587.052v-1.11c0-1.553-.213-2.61-.636-3.174-.423-.565-1.268-.847-2.538-.847-2.187 0-4.797 1.023-7.83 3.068l-3.015-5.078zm13.912 12.008h-.317c-2.504 0-4.232.29-5.183.873-.953.582-1.43 1.667-1.43 3.253 0 1.058.292 1.913.873 2.566.583.652 1.332.978 2.249.978 1.34 0 2.575-.617 3.702-1.85l.107-5.82zm32.974 4.603l2.734 4.23c-3.069 2.505-6.472 3.757-10.21 3.757-3.88 0-6.983-1.27-9.31-3.81-2.327-2.538-3.491-5.941-3.491-10.209 0-4.655 1.11-8.217 3.332-10.685 2.222-2.468 5.078-3.703 8.57-3.703 3.35 0 5.96.953 7.83 2.857 2.397 2.468 3.596 6.418 3.596 11.849v1.64h-15.552v.212c0 4.373 1.895 6.559 5.678 6.559 2.415 0 4.69-.9 6.823-2.697zm-12.501-9.258h8.2v-.317c0-1.834-.283-3.192-.847-4.073-.67-1.059-1.711-1.588-3.122-1.588-2.82 0-4.231 1.958-4.231 5.872v.106zm27.507-22.64c.247 1.374.371 3.72.371 7.035v21.107c0 3.456.15 5.448.45 5.977.3.529.784.793 1.454.793.282 0 .546-.035.794-.106l1.216 4.232c-1.27.495-2.68.74-4.232.74-3.28 0-5.378-1.233-6.294-3.702-.423-1.129-.636-3.156-.636-6.083V112.95c0-3.173-.123-5.889-.37-8.146l7.247-1.64zM109.283 59.53s-3.909-15.895-19-14.24c0 0-8.711.524-10.023 2.44l-6.102-3.463s5.074-3.312 4.464-6.812c-32.033-4.213-22.723 2.989-24.116 7.305 0 0-12.744-3.79-19.964-.916-21.508 8.303-20.379 39.182-13.61 56.418 0 0 7.085 23.556 22.782 35.345A220.621 220.621 0 0 0 59.8 148.258c3.141 1.922 6.768 6.147 10.624 3.958 5.605-3.604 11.108-7.546 14.244-11.246 0 0 18.544-20.851 24.615-41.234 0 0 6.79-24.947 0-40.207z" fill="#102a83" fill-rule="evenodd"/><path d="M78.284 46.204c-.49-.282-1.372-.658-2.51-1.068 8.292-4.977 15.67-14.823 10.273-28.668-3.419 5.154-.82 8.62-6.479 12.345C82.771 13.103 76.548 14.57 76.305 0c-2.435 1.273-7.301 8.507-5.167 14.795 3.2 9.427-1.903 15.786-3.514 15.075C69.78 16 63.31 15.173 62.73 4.734c-11.139 20.355-4.584 20.829-4.98 26.873-5.516-.184-4.667-12.623-6.505-16.115-6.33 10.176-5.335 19.58 5.806 28.088-.457.53-.651 1.237-.5 2.161 0 0 7.571 4.889 16.115 2.663 0 0-2.087 5.958-23.073-1.345-3.447-1.165-20.877-5.006-26.287 15.808-7.03 21.22 7.136 60.878 28.415 72.148-5.738-24.677-42.18-45.905-11.506-75.312 0 0-6.27 24.098 16.036 37.467-3.28-.986-10.194-3.568-12.499-3.136-2.253.421-2.04 2.98 1.747 9.065 9.71 12.953 20.21 17.213 35.072 19.314 1.907 5.824 1.9 18.381 5.504 16.853 0 0 21.81-20.374 28.135-53.046 3.601-24.07-7.217-52.828-35.925-40.016zM26.426 150.75l2.25 12.241-9.1 2.746 6.85-14.987zM110.227 150.44l-2.014 12.147 9.319 2.447-7.305-14.594z" fill="#e30016" fill-rule="evenodd"/><path d="M52.25 113.61c-2.026.622-9.808 20.892-3.434 22.675 0 0 8.64 3.945 6.08-10.95 0 0-4.071-11.253-2.645-11.725zM26.815 55.948c13.395-9.039 30.37 9.944 47.733 3.46 0 0-12.07-2.059-18.093-6.55 0 0-18.279-12.255-29.64 3.09zM77.607 48.893c42.036 1.808 12.46 70.928 6.907 76.749 3.476 2.317 35.518-35.863 20.097-67.492-2.899-5.13-10.615-15.301-27.004-9.257zM45.785 97.43s6.013 7.414 7.596 10.245c1.605 3.32 7.046 5.875 11.859 7.878 3.562 1.599 6.979 2.34 10.462 4.438 0 0 4.306.768 4.876.442l-3.538-1.675-5.244-2.775-3.986-2.853-6.25-4.9-4.22-3.35-3.054-2.372s-7.305-4.911-8.5-5.078z" fill="#fff" fill-rule="evenodd"/><path d="M45.78 97.427s6.096 3.669 7.943 5.666c0 0 2.49 5.827 7.396 8.101 0 0 6.5 2.81 8.907 4.454 0 0 8.8 4.909 10.609 4.873 0 0-3.26-4.683-6.237-6.543 0 0-7.458-3.637-8.736-5.695-1.132-2.755-1.809-2.936-3.762-4.387 0 0-10.76-7.057-16.12-6.469zM116.952 81.936c-.657 2.159.958-2.346-1.77-2.417-4.742-.124-9.81 7.546-11.156 11.263-4.222-8.56-6.409-1.266-14.52-8.944 1.183-1.403 2.59-2.041 4.846-2.676 10.687 5.41 25.338-4.623 20.093-12.995 5.64 3.387 4.028 10.78 2.507 15.77z" fill="#102a83" fill-rule="evenodd"/><path d="M55.035 81.782c3.49 6.339 22.856.727 20.13-11.216 6.922 3.037 19.972.617 21.141-6.642 4.3 5.668 7.23 7.002 14.367 9.221-.977 2.045-1.902 2.76-3.436 3.039-3.74-1.505-10.3-2.822-13.877-1.88-11.669 2.838-21.238 9.623-23.77 19.495-6.543-12.018-15.161.465-17.051-.967-.426-.322 4.078-5.539 1.166-6.748 0 0-2.083-.914-2.912-1.21 1.115-1.479 3.507-1.99 4.242-3.092z" fill="#102a83" fill-rule="evenodd"/><path d="M20.525 79.413c2.505 8 23.643 1.433 25.252-10.424 6.332 3.762 8.826.886 15.55.117-.029-1.4.274-3.155.576-4.91 2.272 3.93 7.722 12.278 3.21 14.472-8.391-10.328-27.095 3.7-33.027 15.83-4.342-6.782-8.786-6.733-14.934-10.8.984-1.419 2.719-3.222 3.373-4.285z" fill="#102a83" fill-rule="evenodd"/><path d="M53.123 119.935c-2.89 1.044-8.127 24.128 2.502 27.241.666.21 13.39-.319 5.688-13.845.125.406-7.178-9.878-8.19-13.396z" fill="#e30016" fill-rule="evenodd"/><path d="M110.226 150.44c9.895 1.464 18.255 5.276 26.414 9.41l-7.783 6.763.162 10.467c-6.093-2.278-11.018-4.252-14.491-5.22l-3.993 9.493c-33.44-8.855-61.452-6.793-83.339 1.424l-4.749-10.685c-3.475.969-8.738 3.009-14.826 5.286l.162-10.467L0 160.147c8.158-4.133 16.532-7.932 26.426-9.397l-6.772 14.874c30.69-9.373 52.486-13.328 97.715-.762l-7.143-14.423z" fill="#102a83" fill-rule="evenodd"/><path d="M26.648 167.693l4.58-1.312.17 1.376-2.752.79.533 1.862 2.302-.66.378 1.318-2.279.653.618 2.152 3.04-.872.398 1.388-4.683 1.343-2.305-8.038zm6.938-1.889l1.831-.356 2.208 2.979c.555.75 1.005 1.466 1.35 2.15a30.48 30.48 0 0 1-.568-2.23l-.686-3.346 1.57-.305 1.595 8.207-1.724.335-2.016-2.868c-.871-1.245-1.417-2.07-1.634-2.477.13.458.307 1.227.535 2.31l.729 3.5-1.595.309-1.595-8.208zm9.777-1.93l1.828-.225 1.903 4.154c.2.445.387.91.56 1.398.04-.465.132-1.037.274-1.719l.904-4.28 1.756-.215-1.863 8.713-1.517.186-3.845-8.013zm11.701-1.411c1.113-.077 2.015.239 2.708.951.693.71 1.085 1.722 1.177 3.035.137 1.96-.39 3.323-1.583 4.09-.455.29-1.001.456-1.641.501-1.2.084-2.132-.245-2.795-.985-.697-.78-1.09-1.79-1.177-3.031-.063-.904.045-1.709.326-2.416.28-.708.71-1.246 1.285-1.616.478-.306 1.044-.483 1.7-.53zm.066 1.298c-.599.042-1.014.316-1.243.824-.244.539-.331 1.308-.261 2.308.1 1.44.41 2.323.932 2.65.278.172.617.245 1.017.217.584-.04.99-.306 1.216-.796.227-.49.303-1.268.23-2.332-.059-.824-.176-1.463-.353-1.917a1.47 1.47 0 0 0-.49-.653 1.49 1.49 0 0 0-1.048-.3zm10.735-1.047l-.771 1.216c-.715-.413-1.367-.614-1.96-.603-.346.006-.626.101-.838.285a.858.858 0 0 0-.313.698c.003.216.074.386.214.507.138.122.38.229.726.319l1.016.258c1.418.36 2.139 1.179 2.161 2.454.015.849-.288 1.537-.908 2.061-.622.525-1.452.795-2.496.813a5.637 5.637 0 0 1-2.864-.708l.603-1.321c.867.434 1.635.644 2.31.632.978-.017 1.46-.405 1.447-1.167-.009-.522-.38-.877-1.114-1.064l-.931-.237c-.804-.202-1.36-.545-1.666-1.03a2.41 2.41 0 0 1-.371-1.268c-.014-.762.255-1.388.803-1.88.55-.49 1.265-.744 2.147-.759 1.083-.019 2.019.246 2.805.794zm9.837-.127l-.776 1.128c-.413-.32-.855-.484-1.328-.492-.617-.011-1.09.218-1.42.684-.329.469-.502 1.188-.52 2.158-.017 1.066.086 1.814.311 2.244.333.631.866.954 1.595.966.505.01.985-.164 1.442-.517l.751 1.073c-.643.51-1.42.757-2.335.74-1.14-.02-2.041-.417-2.706-1.195-.663-.778-.985-1.785-.963-3.02.018-1.025.221-1.888.61-2.588a3.56 3.56 0 0 1 1.36-1.402 3.564 3.564 0 0 1 1.874-.479c.906.016 1.608.25 2.105.7zm4.788-.277c1.113.078 1.962.517 2.55 1.318.587.8.834 1.857.743 3.169-.137 1.96-.85 3.237-2.137 3.83-.49.224-1.056.313-1.695.268-1.2-.084-2.078-.54-2.63-1.365-.583-.87-.83-1.924-.745-3.164.064-.905.283-1.686.66-2.349.376-.66.875-1.134 1.497-1.42.516-.236 1.101-.334 1.757-.287zm-.115 1.294c-.599-.042-1.048.172-1.346.643-.317.5-.51 1.25-.58 2.25-.1 1.44.084 2.357.555 2.752.25.21.577.33.976.358.584.041 1.024-.166 1.316-.62.293-.453.477-1.212.551-2.277.058-.824.031-1.473-.081-1.947a1.48 1.48 0 0 0-.395-.715 1.49 1.49 0 0 0-.996-.444zm5.515-.703l1.851.228 1.18 3.514c.296.884.503 1.706.619 2.463.028-.884.078-1.65.15-2.296l.38-3.396 1.588.195-1.02 8.3-1.742-.215-1.03-3.351c-.446-1.453-.708-2.406-.79-2.86-.018.474-.086 1.262-.205 2.363l-.388 3.552-1.612-.198 1.02-8.3zm8.257 1.2l4.468.788-.426 1.305-2.619-.463-.332 1.884 2.097.37-.238 1.351-2.097-.37-.645 3.662-1.66-.293 1.452-8.235zm5.91 1.053l1.72.365-1.739 8.178-1.718-.365 1.737-8.178zm6.938 1.579c1.083.269 1.843.85 2.282 1.74.44.891.5 1.974.181 3.25-.475 1.907-1.397 3.042-2.77 3.402-.52.135-1.093.124-1.715-.03-1.168-.292-1.952-.893-2.353-1.803-.423-.956-.485-2.038-.183-3.245.219-.879.57-1.611 1.056-2.198.485-.585 1.06-.965 1.723-1.138.548-.144 1.142-.137 1.779.022zm-.338 1.254c-.583-.145-1.063-.012-1.438.399-.398.438-.718 1.142-.961 2.116-.35 1.4-.327 2.336.069 2.806.21.251.51.426.898.522.57.142 1.037.014 1.404-.382.368-.395.68-1.11.938-2.146.2-.801.286-1.446.258-1.932a1.479 1.479 0 0 0-.265-.772 1.488 1.488 0 0 0-.903-.61zM62.71 12.707c2.456 6.907.188 19.31-.053 19.337 2.626-1.27 7.365-4.737.054-19.337zM75.928 8.591c2.526 8.181-.52 22.322-.767 22.354 1.098.948 6.83-5.535.768-22.354z" fill="#fff" fill-rule="evenodd"/><path d="M50.564 22.514c-.229 11.934 9.35 22.715 15.67 22.337-10.802 3.94-19.904-11.667-15.67-22.337z" fill="#102a83" fill-rule="evenodd"/><path d="M85.598 20.395c.158 6.319-5.015 11.088-2.396 12.487.402-.123 5.561-2.93 2.396-12.487zM156.881 33.735h1.934l4.101 12.395h-1.68l-1.175-3.812h-4.625l-1.193 3.812h-1.5l4.138-12.395zm.289 3.126l-1.32 4.246h3.832l-1.897-6.071-.615 1.825zm7.39 2.376c0-.834-.108-1.5-.325-1.996l1.41-.38c.204.457.307.912.307 1.37v.13c.71-1 1.554-1.5 2.53-1.5.144 0 .306.03.487.09l-.578 1.536a1.374 1.374 0 0 0-.398-.072c-.36 0-.72.105-1.075.316-.355.211-.617.473-.785.786-.11.217-.164.542-.164.976v5.637h-1.409v-6.893zm5.168-.967v-1.12h5.999v1.12l-4.68 6.775h4.969l-.669 1.085h-5.998v-1.085l4.896-6.775h-4.517zm7.896 3.38c0-1.458.343-2.609 1.03-3.452s1.62-1.265 2.8-1.265c1.337 0 2.368.524 3.09 1.572.554.807.83 1.922.83 3.343 0 1.662-.469 2.903-1.408 3.721-.663.579-1.482.869-2.457.869-1.205 0-2.153-.429-2.846-1.284-.693-.855-1.039-2.024-1.039-3.505zm5.728-2.404c-.374-.77-1.012-1.156-1.915-1.156-.88 0-1.494.325-1.844.975-.289.53-.433 1.313-.433 2.349 0 1.349.184 2.328.551 2.936.368.608.979.913 1.834.913.976 0 1.626-.452 1.951-1.356.181-.506.271-1.155.271-1.951 0-1.228-.138-2.132-.415-2.71zm4.264-6.035l1.536-.307c.156.674.235 1.421.235 2.24v2.006c0 .518-.012.849-.036.993.819-.807 1.68-1.21 2.583-1.21 1.073 0 1.922.41 2.548 1.229.626.82.94 1.933.94 3.343 0 1.445-.329 2.613-.985 3.505-.656.891-1.52 1.337-2.593 1.337a3.16 3.16 0 0 1-1.391-.343c-.47-.23-.832-.512-1.085-.85-.047.385-.132.71-.253.976h-1.409c.181-.397.271-1.145.271-2.24v-8.547c0-.94-.12-1.65-.36-2.132zm2.385 5.565c-.24.169-.452.373-.633.614v4.626c.554.723 1.296 1.084 2.223 1.084.723 0 1.265-.265 1.626-.795.422-.626.632-1.59.632-2.891 0-1.12-.18-1.933-.542-2.44-.36-.505-.921-.758-1.68-.758-.553 0-1.096.187-1.626.56zm7.953 7.354v-8.962l1.5-.235v9.197h-1.5zm-.343-11.763c0-.313.108-.578.324-.795.218-.216.477-.325.778-.325.313 0 .575.105.786.316.211.211.316.473.316.786 0 .302-.105.56-.316.778-.21.216-.473.324-.786.324-.301 0-.56-.105-.778-.316a1.031 1.031 0 0 1-.324-.768zm7.425 2.404c.988 0 1.903.24 2.747.723l-.524 1.047c-.904-.433-1.656-.65-2.258-.65-.519 0-.931.135-1.239.406-.306.27-.46.63-.46 1.075 0 .313.087.581.262.805.175.223.52.388 1.038.496l1.194.253c1.602.338 2.402 1.175 2.402 2.512 0 .88-.313 1.59-.939 2.132-.626.542-1.445.813-2.457.813-1.217 0-2.32-.3-3.307-.904l.542-1.047c.928.566 1.88.849 2.855.849.554 0 .997-.139 1.328-.415.331-.278.497-.658.497-1.14 0-.782-.494-1.276-1.482-1.48l-1.12-.236c-.735-.156-1.298-.455-1.69-.894a2.294 2.294 0 0 1-.587-1.58c0-.808.298-1.47.895-1.989.596-.517 1.364-.776 2.303-.776zm5.509 2.547c0-1.012-.072-1.734-.217-2.168l1.463-.254c.06.302.09.681.09 1.14v.234c.748-.88 1.633-1.32 2.657-1.32.988 0 1.789.375 2.403 1.121.663.807.994 1.988.994 3.542 0 1.289-.24 2.324-.722 3.108-.675 1.096-1.602 1.644-2.784 1.644-.975 0-1.8-.35-2.474-1.048v4.3l-1.41.271v-10.57zm1.41.163v4.535c.686.783 1.42 1.175 2.203 1.175.916 0 1.548-.374 1.898-1.12.253-.543.38-1.301.38-2.277 0-1.157-.14-2.018-.417-2.584-.325-.663-.88-.994-1.662-.994-.903 0-1.704.421-2.402 1.265zm8.892-.362l-.705-1.011c1.217-.808 2.476-1.212 3.776-1.212 1.278 0 2.108.471 2.494 1.41.133.326.198.837.198 1.536v.452l-.072 2.963a3.31 3.31 0 0 0-.018.416c0 .482.03.83.09 1.048.109.324.326.572.65.74l-.722 1.012c-.65-.204-1.06-.644-1.228-1.319-.807.807-1.675 1.211-2.602 1.211-.927 0-1.65-.24-2.169-.722-.481-.447-.722-1.06-.722-1.843 0-1.025.419-1.82 1.256-2.386.837-.566 2.008-.85 3.514-.85.217 0 .428.008.632.02v-.633c0-.723-.097-1.193-.289-1.41-.29-.325-.692-.488-1.21-.488s-1.097.132-1.735.398c-.41.168-.79.392-1.138.668zm4.282 4.788l.054-2.349c-.41-.023-.644-.035-.704-.035-1.265 0-2.127.24-2.584.722-.337.35-.506.825-.506 1.428 0 1.096.518 1.644 1.554 1.644 1 0 1.729-.47 2.186-1.41zm10.046-10.967l1.41.235v10.046c0 1.072.03 1.801.09 2.186.037.278.097.519.181.723h-1.445a4.623 4.623 0 0 1-.199-.921c-.24.265-.446.452-.615.56-.47.325-1.06.488-1.77.488-1.169 0-2.072-.4-2.71-1.202-.64-.8-.958-1.918-.958-3.351 0-1.928.62-3.32 1.86-4.175.555-.385 1.133-.578 1.735-.578 1.048 0 1.862.385 2.44 1.157-.012-.53-.019-.994-.019-1.391V32.94zm-.017 10.895v-4.77c-.446-.626-1.175-.94-2.186-.94-.723 0-1.281.31-1.672.931-.392.62-.588 1.49-.588 2.611 0 1.373.236 2.313.705 2.819.362.385.85.578 1.464.578.65 0 1.229-.193 1.735-.578.228-.181.41-.398.542-.65zm4.008-2.186c0-1.457.343-2.608 1.03-3.451.686-.843 1.62-1.265 2.8-1.265 1.337 0 2.367.524 3.09 1.572.554.807.83 1.922.83 3.343 0 1.662-.469 2.903-1.408 3.721-.663.579-1.482.869-2.457.869-1.205 0-2.154-.429-2.846-1.284-.693-.855-1.039-2.024-1.039-3.505zm5.728-2.403c-.374-.77-1.013-1.156-1.915-1.156-.88 0-1.495.325-1.844.975-.29.53-.433 1.313-.433 2.349 0 1.349.183 2.328.55 2.936.368.608.98.913 1.834.913.976 0 1.627-.452 1.952-1.355.18-.507.27-1.156.27-1.952 0-1.228-.138-2.132-.414-2.71zm16.228-6.306l1.41.235v10.046c0 1.072.03 1.801.09 2.186.037.278.097.519.181.723h-1.445a4.622 4.622 0 0 1-.2-.921c-.24.265-.445.452-.614.56-.47.325-1.06.488-1.77.488-1.169 0-2.073-.4-2.711-1.202-.638-.8-.957-1.918-.957-3.351 0-1.928.62-3.32 1.86-4.175.555-.385 1.133-.578 1.735-.578 1.048 0 1.862.385 2.44 1.157-.012-.53-.019-.994-.019-1.391V32.94zm-.018 10.895v-4.77c-.445-.626-1.174-.94-2.186-.94-.722 0-1.28.31-1.671.931-.392.62-.588 1.49-.588 2.611 0 1.373.235 2.313.705 2.819.362.385.85.578 1.463.578.651 0 1.23-.193 1.736-.578.228-.181.41-.398.541-.65zm8.095 1.32c.855 0 1.59-.284 2.204-.85l.543.904c-.82.747-1.832 1.12-3.037 1.12-1.24 0-2.216-.425-2.926-1.274-.71-.85-1.066-2.02-1.066-3.514 0-1.434.364-2.569 1.093-3.406.728-.837 1.623-1.256 2.683-1.256 1 0 1.813.332 2.44.993.384.41.652.88.803 1.41.151.53.226 1.325.226 2.385v.199h-5.62v.216c0 .892.14 1.549.417 1.97.482.735 1.228 1.102 2.24 1.102zm-.578-7.156c-1.314 0-2.005.934-2.079 2.8h4.12c-.012-.927-.15-1.595-.415-2.005-.337-.53-.88-.795-1.626-.795zm12.122 8.131V33.735h1.789c1.927 0 3.155.09 3.686.27.638.218 1.15.588 1.535 1.112.386.524.579 1.099.579 1.726 0 1.337-.74 2.24-2.223 2.71.76.192 1.307.422 1.645.686.734.579 1.102 1.41 1.102 2.494 0 .675-.196 1.308-.588 1.897-.39.59-.894.994-1.508 1.211-.53.193-1.47.29-2.819.29h-3.199zm3.18-11.149h-1.753v4.084h2.15c.663 0 1.145-.072 1.446-.217.301-.144.542-.427.723-.85.132-.3.199-.62.199-.956 0-.519-.142-.958-.425-1.32-.283-.361-.678-.584-1.184-.668-.253-.048-.638-.073-1.156-.073zm.433 5.313h-2.186v4.626h2.476c.758 0 1.31-.091 1.653-.272.344-.18.612-.517.804-1.011.132-.338.199-.681.199-1.03 0-.542-.14-1.018-.416-1.427-.277-.41-.638-.663-1.084-.76-.386-.084-.867-.126-1.446-.126zm6.92 3.524v-6.614l1.392-.27V43.4c0 .76.175 1.254.524 1.482.35.23.723.343 1.12.343.446 0 .88-.15 1.3-.451.423-.301.755-.693.995-1.175v-6.378l1.392-.235v6.379c0 .831.072 1.39.216 1.68.085.168.217.337.398.506l-.904.958c-.542-.446-.867-.928-.976-1.446-.686.915-1.638 1.374-2.854 1.374-1.205 0-1.994-.429-2.367-1.284-.157-.36-.236-.807-.236-1.336zm13.32 1.336c.855 0 1.59-.283 2.204-.849l.543.904c-.82.747-1.832 1.12-3.037 1.12-1.24 0-2.216-.425-2.926-1.274-.71-.85-1.066-2.02-1.066-3.514 0-1.434.364-2.569 1.093-3.406.728-.837 1.623-1.256 2.683-1.256 1 0 1.813.332 2.44.993.384.41.653.88.803 1.41.151.53.226 1.325.226 2.385v.199h-5.62v.216c0 .892.14 1.549.417 1.97.482.735 1.228 1.102 2.24 1.102zM304.018 38c-1.314 0-2.005.934-2.078 2.8h4.12c-.013-.927-.15-1.595-.416-2.005-.337-.53-.88-.795-1.626-.795zm6 1.44c0-.611-.019-1.033-.055-1.262-.037-.229-.132-.515-.289-.864l1.373-.38c.217.464.325.927.325 1.391.928-.927 1.874-1.39 2.837-1.39.482 0 .925.12 1.328.36.404.242.695.56.876.958.145.325.218.675.218 1.048v6.83h-1.428v-6.09c0-.758-.111-1.261-.335-1.508-.223-.247-.55-.37-.984-.37-.362 0-.786.123-1.274.37a4.276 4.276 0 0 0-1.22.895v6.703h-1.373V39.44zm9.211 2.21c0-1.457.343-2.608 1.03-3.451s1.62-1.265 2.8-1.265c1.337 0 2.368.524 3.09 1.572.554.807.83 1.922.83 3.343 0 1.662-.469 2.903-1.408 3.722-.663.578-1.482.868-2.457.868-1.205 0-2.153-.429-2.846-1.284-.693-.855-1.039-2.024-1.039-3.505zm5.728-2.403c-.374-.77-1.012-1.156-1.915-1.156-.88 0-1.494.325-1.844.975-.289.53-.433 1.313-.433 2.349 0 1.349.184 2.328.55 2.936.368.608.98.913 1.835.913.975 0 1.626-.452 1.951-1.355.181-.507.271-1.156.271-1.952 0-1.228-.139-2.132-.415-2.71zm7.176-2.475c.988 0 1.903.24 2.747.723l-.524 1.047c-.904-.433-1.657-.65-2.259-.65-.518 0-.93.135-1.238.406-.307.27-.46.63-.46 1.075 0 .313.087.581.261.805.176.223.521.388 1.039.496l1.193.254c1.602.337 2.403 1.174 2.403 2.51 0 .88-.313 1.59-.94 2.133-.626.542-1.445.813-2.457.813-1.216 0-2.319-.3-3.307-.903l.542-1.048c.928.566 1.88.849 2.856.849.554 0 .996-.139 1.328-.415.33-.278.497-.658.497-1.14 0-.782-.494-1.276-1.482-1.48l-1.12-.236c-.736-.156-1.299-.454-1.69-.894a2.295 2.295 0 0 1-.588-1.58c0-.808.298-1.47.896-1.989.596-.517 1.364-.776 2.303-.776zm14.218-3.036h1.934l4.1 12.395h-1.68l-1.175-3.812h-4.625l-1.192 3.812h-1.5l4.138-12.395zm.288 3.126c-.047.156-.487 1.572-1.318 4.246h3.83l-1.897-6.071-.615 1.825zm7.304 9.27v-8.963l1.5-.235v9.197h-1.5zm-.343-11.764c0-.313.108-.578.324-.795.218-.216.476-.325.777-.325.313 0 .576.105.787.316.21.211.316.473.316.787 0 .3-.105.56-.316.777-.211.216-.474.324-.787.324-.3 0-.56-.105-.777-.316a1.031 1.031 0 0 1-.324-.768zm4.929 4.87c0-.834-.109-1.5-.325-1.996l1.408-.38c.206.457.308.912.308 1.37v.13c.71-1 1.554-1.5 2.53-1.5.144 0 .307.03.487.09l-.578 1.536a1.374 1.374 0 0 0-.397-.072c-.361 0-.72.105-1.076.316-.355.211-.616.473-.785.786-.109.217-.163.542-.163.976v5.637h-1.41v-6.893zm9.398 5.917c.855 0 1.59-.283 2.204-.849l.543.904c-.82.747-1.832 1.12-3.036 1.12-1.24 0-2.216-.425-2.927-1.274-.71-.85-1.066-2.02-1.066-3.514 0-1.434.364-2.569 1.093-3.406.729-.837 1.623-1.256 2.683-1.256 1 0 1.813.332 2.44.993.385.41.653.88.804 1.41.15.53.226 1.325.226 2.385v.199h-5.62v.216c0 .892.138 1.549.416 1.97.482.735 1.228 1.102 2.24 1.102zM367.35 38c-1.313 0-2.005.934-2.078 2.8h4.12c-.012-.927-.15-1.595-.416-2.005-.337-.53-.879-.795-1.626-.795zm8.51-1.228c.989 0 1.904.24 2.747.723l-.524 1.047c-.903-.433-1.656-.65-2.258-.65-.518 0-.93.135-1.238.406-.307.27-.46.63-.46 1.075 0 .313.087.581.261.805.175.223.521.388 1.039.496l1.193.254c1.602.337 2.403 1.174 2.403 2.51 0 .88-.313 1.59-.94 2.133-.626.542-1.445.813-2.457.813-1.216 0-2.319-.3-3.307-.903l.542-1.048c.928.566 1.88.849 2.855.849.554 0 .997-.139 1.329-.415.33-.278.497-.658.497-1.14 0-.782-.494-1.276-1.482-1.48l-1.12-.236c-.736-.156-1.299-.454-1.69-.894a2.294 2.294 0 0 1-.588-1.58c0-.808.298-1.47.895-1.989.597-.517 1.364-.776 2.304-.776z" fill="#fff" fill-rule="evenodd"/></svg>